# xmcd CD database file
#
# Track frame offsets:
#	150
#	23324
#	42474
#	67215
#	95780
#	114923
#	134441
#	160099
#	187413
#
# Disc length: 2895 seconds
#
# Revision: 0
# Processed by: cddbd v1.5.2PL0 Copyright (c) Steve Scherf et al.
# Submitted via: CDex 1.51
#
DISCID=7e0b4d09
DTITLE=John Zorn - Book of Angels, Vol. 30 Leonard - Garth Knox and The Saltarello Trio
DYEAR=2017
DGENRE=Jazz
TTITLE0=Amhiel
TTITLE1=Kmiel
TTITLE2=Cerviel
TTITLE3=Hatach
TTITLE4=Katmial
TTITLE5=Yomyael
TTITLE6=Udriel
TTITLE7=Azariel
TTITLE8=Tazbun
EXTD=YEAR: 2017
EXTT0=
EXTT1=
EXTT2=
EXTT3=
EXTT4=
EXTT5=
EXTT6=
EXTT7=
EXTT8=
PLAYORDER=
